<svg width="1200" height="630" viewBox="0 0 1200 630" xmlns="http://www.w3.org/2000/svg">
  <!-- Fondo terracota -->
  <rect width="1200" height="630" fill="#ba4c00"/>
  <!-- Textura sutil -->
  <rect width="1200" height="630" fill="url(#grain)" opacity="0.08"/>
  <defs>
    <pattern id="grain" x="0" y="0" width="4" height="4" patternUnits="userSpaceOnUse">
      <circle cx="1" cy="1" r="0.5" fill="white"/>
      <circle cx="3" cy="3" r="0.5" fill="white"/>
    </pattern>
  </defs>
  <!-- Banda decorativa inferior -->
  <rect y="580" width="1200" height="50" fill="#923c00" opacity="0.5"/>
  <!-- Línea decorativa -->
  <rect y="560" width="1200" height="2" fill="white" opacity="0.15"/>

  <!-- Dragon SVG centrado (grande, blanco, semitransparente) -->
  <g transform="translate(720, 80) scale(0.6)" opacity="0.18" fill="white">
    <path d="M620.657,266.968c-10.783-35.934-9.273-69.02,25.451-45.898C523.6,55.309,391.63,11.712,344.457,4.814
      c-19.942-2.917-23.774,9.457-18.985,20.371c4.885,11.135,17.413,28.589,32.792,43.875c-9.833,3.537-30.406,8.074-44.051,8.148
      c5.785-2.661,24.976-14.041,27.349-22.172c-9.377,5.176-43.849,23.941-62.247,20.9c13.891-6.233,31.447-20.188,36.99-34.014
      c-7.018,6.729-33.194,24.609-50.708,29.29c2.969-2.143,11.237-10.31,12.467-14.667c-7.938,5.982-23.854,12.423-32.913,13.502
      c3.219-2.934,12.596-13.358,14.321-17.384c-11.332,8.225-39.578,26.443-58.386,31.619c17.923-11.28,32.763-29.002,34.487-39.125
      c-11.236,12.661-36.602,30.692-53.036,37.766c3.968-7.132,17.707-33.215,14.839-43.546c-9.943,27.413-46.2,55.474-58.884,63.303
      c2.416-3.566,6.969-14.861,6.235-19.304c-4.919,8.304-19.845,22.647-24.935,22.97c7.315-9.215,21.017-26.273,31.211-44.215
      c8.636-15.204,14.85-31.006,11.496-43.59c-8.498,24.588-32.203,56.035-46.331,71.198c1.165-3.235,2.42-10.462,1.644-15.617
      c-5.177,12.467-25.066,40.766-32.939,46.719c-2.748,2.08-1.704-8.131-0.409-14.559c-4.4,4.961-14.969,25.839-18.852,40.635
      c-3.882,14.796-9.662,23.423-11.862,23.452c-0.862,0.011-1.661-1.604-1.733-5.237c-3.883,5.392-7.843,20.874-7.843,25.417
      s1.021,16.034,5.307,17.12c1.598,0.404,8.54-2.173,10.935-2.043c0.409-5.694,5.306-14.322,12.531-11.302
      c-2.632-6.19,0.086-10.029,7.031-7.786c-1.984-6.643,5.09-10.439,10.029-8.649c0.107-1.165,1.078-2.178,3.321-1.639
      c3.192,1.251-1.467,8.8-7.872,7.527c0.518,3.257,0.625,8.218-6.881,6.514c0.107,5.176-1.014,7.182-7.333,6.125
      c0.927,5.931,1.121,7.894-5.78,8.023c0.582,2.847,3.925,6.514,8.627,6.643s10.547-5.953,13.523-8.865
      c2.977-2.912,17.945-12.1,23.92-16.025c5.975-3.925,8.194-7.221,12.473-8.318c5.608-1.438,13.206,1.025,17.255,1.093
      c-10.381-6.988-4.456-7.736,12.481-11.992c-8.569-2.818-13.646-1.869-17.901-6.125c10.583-14.379,61.472-45.466,120.569-43.137
      c105.254-1.38,195.612,81.041,200.328,199.293c4.647,116.559-82.468,209.047-196.705,208.264
      C117.392,524.294,60.911,400.636,55.174,334.865c4.973,4.824,11.991,12.121,23.251,20.878
      c-17.053-33.187-25.451-77.301,9.576-106.721C46.102,258.484-4.398,350.48,6.903,401.124
      c2.416-13.805,14.666-53.404,28.211-67.035c3.825,40.319,22.777,115.779,96.196,163.23
      c105.107,67.931,206.08,35.142,261.757-1.381c50.604-33.196,86.904-27.952,72.699,20.59
      c16.564-21.107,27.205-41.238,36.351-70.283c12.531-39.8,41.985-59.643,79.372-17.198c-5.425-47.374-4.901-77.549,4.831-88.976
      c14.004-16.445,41.849-0.079,62.506,29.606C643.763,335.627,631.873,304.339,620.657,266.968z"/>
    <path d="M376.761,393.963c-9.748-19.671-39.513-54.265-43.31-60.938c-2.502-4.228-2.968-5.379,3.538-6.744
      c6.988-1.467,44.215-4.486,44.285-22.36c0.1-24.832-60.548-45.624-76.565-56.021c-8.864-5.753-5.422-10.525-9.994-23.38
      c-3.198-8.984-14.581-26.27-36.494-26.27c-21.914,0-33.299,17.286-36.494,26.27c-4.572,12.855-1.132,17.626-9.994,23.38
      c-16.018,10.396-76.668,31.188-76.568,56.021c0.071,17.874,37.3,20.894,44.288,22.36c6.503,1.365,6.039,2.517,3.537,6.744
      c-3.796,6.673-33.561,41.267-43.311,60.938c-9.749,19.671-4.4,33.905,4.401,33.905c8.8,0,73.333,0,79.113,0
      s27.004-52.626,35.027-52.626s29.247,52.626,35.027,52.626s70.313,0,79.113,0S386.51,413.634,376.761,393.963z"/>
  </g>

  <!-- Dragon icono principal (izquierda) -->
  <g transform="translate(80, 165) scale(0.55)" opacity="1" fill="white">
    <path d="M620.657,266.968c-10.783-35.934-9.273-69.02,25.451-45.898C523.6,55.309,391.63,11.712,344.457,4.814
      c-19.942-2.917-23.774,9.457-18.985,20.371c4.885,11.135,17.413,28.589,32.792,43.875c-9.833,3.537-30.406,8.074-44.051,8.148
      c5.785-2.661,24.976-14.041,27.349-22.172c-9.377,5.176-43.849,23.941-62.247,20.9c13.891-6.233,31.447-20.188,36.99-34.014
      c-7.018,6.729-33.194,24.609-50.708,29.29c2.969-2.143,11.237-10.31,12.467-14.667c-7.938,5.982-23.854,12.423-32.913,13.502
      c3.219-2.934,12.596-13.358,14.321-17.384c-11.332,8.225-39.578,26.443-58.386,31.619c17.923-11.28,32.763-29.002,34.487-39.125
      c-11.236,12.661-36.602,30.692-53.036,37.766c3.968-7.132,17.707-33.215,14.839-43.546c-9.943,27.413-46.2,55.474-58.884,63.303
      c2.416-3.566,6.969-14.861,6.235-19.304c-4.919,8.304-19.845,22.647-24.935,22.97c7.315-9.215,21.017-26.273,31.211-44.215
      c8.636-15.204,14.85-31.006,11.496-43.59c-8.498,24.588-32.203,56.035-46.331,71.198c1.165-3.235,2.42-10.462,1.644-15.617
      c-5.177,12.467-25.066,40.766-32.939,46.719c-2.748,2.08-1.704-8.131-0.409-14.559c-4.4,4.961-14.969,25.839-18.852,40.635
      c-3.882,14.796-9.662,23.423-11.862,23.452c-0.862,0.011-1.661-1.604-1.733-5.237c-3.883,5.392-7.843,20.874-7.843,25.417
      s1.021,16.034,5.307,17.12c1.598,0.404,8.54-2.173,10.935-2.043c0.409-5.694,5.306-14.322,12.531-11.302
      c-2.632-6.19,0.086-10.029,7.031-7.786c-1.984-6.643,5.09-10.439,10.029-8.649c0.107-1.165,1.078-2.178,3.321-1.639
      c3.192,1.251-1.467,8.8-7.872,7.527c0.518,3.257,0.625,8.218-6.881,6.514c0.107,5.176-1.014,7.182-7.333,6.125
      c0.927,5.931,1.121,7.894-5.78,8.023c0.582,2.847,3.925,6.514,8.627,6.643s10.547-5.953,13.523-8.865
      c2.977-2.912,17.945-12.1,23.92-16.025c5.975-3.925,8.194-7.221,12.473-8.318c5.608-1.438,13.206,1.025,17.255,1.093
      c-10.381-6.988-4.456-7.736,12.481-11.992c-8.569-2.818-13.646-1.869-17.901-6.125c10.583-14.379,61.472-45.466,120.569-43.137
      c105.254-1.38,195.612,81.041,200.328,199.293c4.647,116.559-82.468,209.047-196.705,208.264
      C117.392,524.294,60.911,400.636,55.174,334.865c4.973,4.824,11.991,12.121,23.251,20.878
      c-17.053-33.187-25.451-77.301,9.576-106.721C46.102,258.484-4.398,350.48,6.903,401.124
      c2.416-13.805,14.666-53.404,28.211-67.035c3.825,40.319,22.777,115.779,96.196,163.23
      c105.107,67.931,206.08,35.142,261.757-1.381c50.604-33.196,86.904-27.952,72.699,20.59
      c16.564-21.107,27.205-41.238,36.351-70.283c12.531-39.8,41.985-59.643,79.372-17.198c-5.425-47.374-4.901-77.549,4.831-88.976
      c14.004-16.445,41.849-0.079,62.506,29.606C643.763,335.627,631.873,304.339,620.657,266.968z"/>
    <path d="M376.761,393.963c-9.748-19.671-39.513-54.265-43.31-60.938c-2.502-4.228-2.968-5.379,3.538-6.744
      c6.988-1.467,44.215-4.486,44.285-22.36c0.1-24.832-60.548-45.624-76.565-56.021c-8.864-5.753-5.422-10.525-9.994-23.38
      c-3.198-8.984-14.581-26.27-36.494-26.27c-21.914,0-33.299,17.286-36.494,26.27c-4.572,12.855-1.132,17.626-9.994,23.38
      c-16.018,10.396-76.668,31.188-76.568,56.021c0.071,17.874,37.3,20.894,44.288,22.36c6.503,1.365,6.039,2.517,3.537,6.744
      c-3.796,6.673-33.561,41.267-43.311,60.938c-9.749,19.671-4.4,33.905,4.401,33.905c8.8,0,73.333,0,79.113,0
      s27.004-52.626,35.027-52.626s29.247,52.626,35.027,52.626s70.313,0,79.113,0S386.51,413.634,376.761,393.963z"/>
  </g>

  <!-- Textos -->
  <text x="460" y="240" font-family="Georgia, serif" font-size="72" font-weight="700" fill="white" letter-spacing="-1">El Dragón de Madera</text>
  <text x="462" y="310" font-family="Georgia, serif" font-size="32" fill="white" opacity="0.75" letter-spacing="2">BLOOD BOWL · GRANADA</text>
  <text x="462" y="390" font-family="Arial, sans-serif" font-size="26" fill="white" opacity="0.55">Liga privada de Blood Bowl</text>

  <!-- Línea decorativa izquierda -->
  <rect x="460" y="420" width="80" height="3" fill="white" opacity="0.4"/>
</svg>
